<?xml version="1.0" standalone="no"?>
<!DOCTYPE svg PUBLIC "-//W3C//DTD SVG 20010904//EN"
 "http://www.w3.org/TR/2001/REC-SVG-20010904/DTD/svg10.dtd">
<svg version="1.0" xmlns="http://www.w3.org/2000/svg"
 width="763.000000pt" height="327.000000pt" viewBox="0 0 763.000000 327.000000"
 preserveAspectRatio="xMidYMid meet">

<g transform="translate(0.000000,327.000000) scale(0.100000,-0.100000)"
fill="#000000" stroke="none">
<path d="M6707 2688 c2 -288 0 -532 -3 -543 -5 -19 -12 -20 -205 -17 -109 1
-199 6 -199 10 -3 395 -5 437 -24 475 -11 20 -23 37 -28 37 -4 0 -8 7 -8 16 0
29 -83 104 -150 135 -14 6 -33 15 -42 20 -23 12 -28 11 -28 -3 0 -6 3 -9 6 -5
4 3 12 1 20 -6 7 -7 44 -30 83 -52 38 -22 67 -43 65 -47 -2 -3 4 -13 14 -20
11 -7 20 -17 21 -23 0 -5 7 -17 15 -27 8 -9 12 -19 9 -22 -4 -3 -1 -6 6 -6 7
0 11 -6 8 -12 -2 -7 0 -26 4 -42 5 -16 9 -123 9 -238 l1 -209 220 1 219 1 -2
540 c-3 473 -1 539 12 540 8 0 63 0 123 -1 69 -1 107 3 107 9 0 7 -45 11 -127
11 l-128 0 2 -522z"/>
<path d="M6970 3200 c0 -6 7 -13 15 -16 9 -4 15 -18 14 -33 l-1 -26 -8 25 c-4
14 -8 -213 -9 -504 l-1 -529 -29 -53 c-17 -28 -27 -55 -24 -58 4 -3 1 -6 -5
-6 -6 0 -21 -17 -31 -37 -11 -21 -24 -44 -29 -51 -7 -10 -406 -12 -1975 -12
-1295 0 -1967 -4 -1967 -10 0 -7 675 -10 1974 -10 l1974 0 56 99 c31 54 56
104 56 110 0 6 5 11 11 11 5 0 7 5 4 10 -3 6 -1 10 4 10 8 0 11 168 11 545 0
538 0 545 -20 545 -11 0 -20 -5 -20 -10z m27 -287 c-2 -16 -4 -5 -4 22 0 28 2
40 4 28 2 -13 2 -35 0 -50z m0 -485 c-3 -7 -5 -2 -5 12 0 14 2 19 5 13 2 -7 2
-19 0 -25z m0 -150 c-3 -7 -5 -2 -5 12 0 14 2 19 5 13 2 -7 2 -19 0 -25z m0
-140 c-3 -7 -5 -2 -5 12 0 14 2 19 5 13 2 -7 2 -19 0 -25z"/>
<path d="M7245 3201 c6 -6 70 -12 143 -13 l132 -3 0 -640 0 -640 -115 -5 c-64
-3 -123 -3 -131 0 -13 5 -15 90 -14 637 0 422 -3 634 -10 638 -7 4 -10 -198
-10 -634 0 -433 4 -641 11 -641 6 0 7 -4 4 -10 -4 -6 43 -10 134 -10 106 0
141 3 141 13 0 8 4 7 10 -3 12 -18 7 1265 -5 1294 -6 14 -5 17 3 12 7 -4 12
-3 12 2 0 6 -67 10 -157 11 -106 1 -154 -2 -148 -8z"/>
<path d="M722 3103 c-37 -18 -65 -63 -55 -89 4 -12 3 -15 -5 -10 -7 4 -12 1
-12 -8 0 -8 5 -18 10 -21 6 -4 8 -10 5 -15 -3 -5 3 -13 12 -19 10 -6 14 -11 9
-11 -5 0 3 -11 18 -25 24 -22 35 -25 78 -22 42 4 56 10 79 37 16 18 29 44 29
59 0 20 2 23 10 11 8 -13 10 -12 10 3 0 9 5 17 11 17 6 0 8 9 4 21 -5 16 -4
19 5 14 9 -5 11 -4 6 4 -10 16 -26 4 -26 -20 0 -10 -7 -19 -15 -19 -8 0 -12 6
-9 14 3 7 -2 21 -11 30 -9 9 -13 16 -9 16 4 0 -5 9 -19 20 -14 11 -32 17 -41
14 -9 -3 -16 -1 -16 5 0 16 -30 13 -68 -6z m131 -43 c14 -15 24 -30 22 -32 -2
-1 -5 -21 -6 -43 -2 -24 -11 -45 -21 -53 -10 -7 -16 -18 -13 -23 3 -5 -1 -6
-9 -3 -9 3 -16 2 -16 -2 0 -7 -59 -10 -77 -5 -2 1 -5 0 -8 -1 -3 -2 -14 11
-24 28 -19 32 -33 114 -18 114 4 0 6 4 3 8 -3 5 6 15 19 22 14 7 25 16 25 19
0 3 22 4 49 3 39 -3 55 -10 74 -32z"/>
<path d="M1014 3111 c3 -4 -5 -7 -17 -6 -24 3 -71 -28 -60 -39 4 -3 13 0 22 8
9 8 36 16 60 18 39 3 48 0 76 -28 26 -26 31 -37 27 -66 -2 -20 1 -39 7 -42 7
-5 11 8 11 38 0 26 -5 46 -11 46 -5 0 -8 4 -5 8 9 15 -48 60 -71 57 -13 -1
-23 2 -23 7 0 4 -5 8 -11 8 -5 0 -8 -4 -5 -9z"/>
<path d="M919 2975 c-4 -5 -3 -20 1 -31 25 -65 126 -85 179 -35 38 36 29 49
-11 16 -29 -24 -37 -27 -78 -27 -32 0 -36 1 -57 20 -12 10 -23 29 -25 42 -1
14 -6 21 -9 15z"/>
<path d="M3352 2682 l-293 -287 1 -122 c0 -110 2 -123 18 -123 136 -4 562 -3
567 1 3 3 4 188 3 412 l-3 405 -293 -286z"/>
<path d="M1760 2829 c0 -5 3 -9 8 -9 4 0 8 -155 9 -345 1 -216 -2 -343 -8
-340 -5 4 -9 2 -9 -4 0 -5 -8 -8 -17 -6 -10 2 -105 4 -210 4 l-193 1 0 335 c0
217 -4 335 -10 335 -6 0 -10 -122 -10 -345 l0 -346 235 1 235 1 0 355 0 354
130 0 130 0 0 -355 0 -355 220 0 219 0 1 352 c0 193 1 353 3 354 1 1 63 4 137
6 l135 3 -2 -205 c-7 -531 -5 -500 -35 -547 -15 -23 -29 -48 -30 -55 -2 -7 -7
-16 -12 -19 -4 -4 -3 -9 2 -13 6 -4 19 10 29 31 9 21 28 53 40 72 23 34 23 36
23 393 l0 359 -155 -2 -155 -3 0 -335 c0 -185 0 -344 0 -353 0 -16 -19 -17
-197 -20 l-198 -3 3 358 3 358 -161 -2 c-88 0 -160 -5 -160 -10z"/>
<path d="M5585 2833 c-39 -8 -110 -36 -137 -55 -38 -26 -36 -44 2 -21 17 9 30
22 30 27 0 5 3 6 7 3 3 -4 17 0 29 8 12 8 38 16 56 17 18 1 35 5 38 8 3 3 91
3 195 0 194 -5 217 -4 194 11 -14 8 -374 10 -414 2z"/>
<path d="M626 2823 c-3 -4 -27 -8 -51 -9 -25 -2 -51 -7 -58 -11 -6 -4 -16 -8
-22 -8 -26 -2 -65 -18 -65 -27 0 -5 -4 -7 -9 -3 -11 6 -61 -14 -61 -25 0 -4
-6 -7 -13 -7 -23 0 -107 -63 -107 -80 0 -9 -3 -14 -6 -10 -10 10 -43 -25 -37
-40 3 -8 0 -13 -7 -11 -6 2 -19 -7 -27 -19 -14 -21 -14 -23 0 -23 11 0 14 5
10 17 -4 10 -2 14 4 10 11 -7 73 64 73 83 0 6 5 8 10 5 6 -3 13 1 16 9 3 9 10
14 14 11 4 -2 19 6 34 20 14 13 26 21 26 18 0 -3 6 -1 13 5 19 15 133 51 232
71 79 17 130 19 418 18 180 -1 327 1 327 6 0 9 -704 9 -714 0z"/>
<path d="M5373 2713 c-39 -51 -65 -93 -57 -93 4 0 1 -7 -6 -15 -7 -8 -9 -15
-4 -15 5 0 2 -5 -6 -10 -12 -8 -16 -47 -18 -230 l-3 -220 -405 0 -404 0 0 264
0 264 -140 1 c-91 1 -140 -2 -140 -9 0 -6 47 -10 130 -10 l130 0 0 -265 0
-265 425 0 425 0 0 201 c0 213 8 269 47 331 12 21 23 42 23 48 0 5 4 10 10 10
11 0 34 39 27 46 -3 3 -18 -12 -34 -33z"/>
<path d="M4160 2395 l0 -265 -626 0 c-414 0 -623 -3 -619 -10 4 -6 226 -10
633 -10 l628 0 -1 275 c0 151 -3 275 -7 275 -5 0 -8 -119 -8 -265z"/>
<path d="M5668 2611 c-48 -22 -66 -38 -85 -78 -12 -26 -13 -37 -4 -46 8 -8 11
-6 11 10 0 12 5 25 10 28 6 4 8 11 5 16 -4 5 -1 9 4 9 6 0 11 7 11 15 0 8 3
14 8 13 4 0 25 7 47 17 64 30 155 32 220 5 95 -38 99 -51 103 -278 l4 -192
-209 2 -208 3 -5 170 -6 170 -2 -182 -2 -183 226 0 225 0 -3 205 c-2 170 -6
207 -18 215 -8 5 -11 10 -6 10 18 0 -49 62 -82 77 -46 19 -198 16 -244 -6z"/>
<path d="M740 2589 c0 -7 -9 -9 -25 -5 -15 4 -25 2 -25 -4 0 -6 -4 -8 -10 -5
-5 3 -16 3 -22 -2 -7 -4 -18 -8 -24 -9 -25 -4 -84 -37 -84 -47 0 -6 -3 -7 -7
-3 -9 9 -95 -83 -88 -95 4 -5 2 -9 -4 -9 -5 0 -9 -25 -9 -55 0 -33 4 -52 10
-48 6 3 8 25 5 49 -3 30 0 47 9 55 8 7 12 14 10 17 -3 2 21 26 52 53 37 31 76
54 114 66 32 10 58 21 58 24 0 3 11 4 25 1 14 -2 25 0 25 4 0 5 61 9 135 9
l135 0 1 -135 c0 -74 2 -178 2 -230 l2 -95 -160 6 c-89 3 -173 11 -190 18 -16
7 -32 12 -35 12 -21 0 -84 42 -127 85 -56 56 -78 59 -37 6 25 -31 114 -99 114
-87 0 4 16 -3 35 -15 19 -12 53 -23 76 -25 22 -1 43 -5 46 -9 4 -3 70 -6 149
-6 l142 0 -1 243 -2 242 -147 3 c-105 2 -148 -1 -148 -9z"/>
<path d="M145 2530 c3 -5 8 -10 11 -10 2 0 4 5 4 10 0 6 -5 10 -11 10 -5 0 -7
-4 -4 -10z"/>
<path d="M116 2467 c-20 -64 -17 -199 5 -234 21 -34 27 -28 16 16 -6 22 -14
38 -17 36 -11 -7 1 130 16 174 8 25 10 49 6 53 -5 5 -17 -15 -26 -45z"/>
<path d="M152 2158 c13 -24 32 -44 43 -46 19 -3 19 -2 -2 16 -12 11 -19 22
-16 26 3 3 -2 8 -11 12 -9 3 -14 10 -11 14 3 4 -2 11 -11 14 -12 5 -10 -4 8
-36z"/>
<path d="M2894 2005 c0 -71 1 -99 3 -62 2 37 2 96 0 130 -2 34 -3 4 -3 -68z"/>
<path d="M200 2092 c0 -8 38 -46 87 -86 15 -12 21 -14 19 -4 -3 22 -17 40 -30
35 -6 -2 -19 5 -28 15 -10 10 -15 18 -12 18 3 0 -1 7 -10 15 -16 17 -26 19
-26 7z"/>
<path d="M1436 2024 c-9 -8 -16 -12 -16 -8 0 4 -9 -1 -20 -11 -11 -10 -17 -21
-15 -25 3 -5 0 -10 -7 -12 -6 -2 -12 -20 -12 -39 l-1 -34 -255 2 c-413 3 -515
9 -600 34 -41 12 -82 22 -90 23 -8 1 -33 14 -55 28 -43 28 -57 29 -31 2 21
-20 155 -76 166 -69 5 3 11 1 15 -5 3 -5 16 -9 28 -9 12 0 40 -4 62 -9 22 -6
155 -10 295 -11 140 0 303 -1 361 -1 87 0 108 -3 113 -16 5 -14 -25 -15 -287
-14 -242 2 -302 -1 -351 -14 -148 -41 -270 -111 -381 -220 -249 -245 -313
-636 -154 -950 96 -190 268 -335 484 -407 69 -23 78 -24 548 -27 l477 -3 0
418 c0 379 2 425 20 494 24 95 41 137 79 193 57 83 177 136 306 136 l61 0 -43
-87 c-24 -49 -50 -115 -59 -148 -24 -88 -29 -274 -11 -361 62 -292 263 -514
558 -616 62 -21 79 -22 547 -25 l482 -4 0 622 0 622 48 -7 c112 -15 213 -75
263 -156 56 -92 59 -121 59 -622 l0 -458 290 0 290 0 0 466 c0 517 -3 544 -66
683 -19 41 -34 78 -34 84 0 17 169 1 233 -23 107 -40 204 -137 248 -247 24
-57 24 -63 27 -511 l3 -452 280 0 280 0 -3 493 c-4 467 -5 495 -25 559 -12 36
-33 90 -47 118 -14 28 -26 56 -26 62 0 7 35 9 103 6 83 -4 114 -10 159 -30
105 -49 178 -134 215 -253 16 -55 18 -101 18 -507 l0 -448 288 0 287 0 0 90
c0 50 2 90 5 90 3 0 30 -20 59 -44 30 -24 83 -58 118 -75 117 -57 150 -61 505
-61 l323 0 0 184 0 185 -232 3 c-216 3 -237 5 -291 27 -167 66 -277 228 -277
405 0 184 101 337 270 407 51 22 74 24 290 29 l235 5 0 185 0 185 -330 0 -330
0 -85 -31 c-47 -17 -111 -47 -141 -67 -68 -45 -160 -135 -196 -193 -16 -24
-31 -44 -35 -44 -3 0 -23 22 -42 49 -88 120 -222 214 -371 261 l-80 25 -1782
3 c-1568 2 -1782 4 -1777 17 5 12 30 15 128 15 66 0 126 4 131 8 6 4 11 16 13
27 3 20 3 20 -11 1 -12 -17 -28 -19 -134 -20 -93 -1 -119 2 -116 12 13 32 -27
97 -74 121 -31 16 -69 14 -87 -5 -9 -8 -16 -12 -16 -8 0 4 -12 -5 -26 -19 -14
-14 -23 -31 -19 -37 3 -5 1 -10 -5 -10 -7 0 -10 -12 -8 -27 l3 -27 -152 3
c-109 2 -153 -1 -153 -9 0 -8 45 -10 155 -8 142 3 155 2 155 -14 0 -16 -14
-18 -161 -18 l-161 0 6 48 c8 57 -6 87 -53 119 -37 25 -51 29 -51 12 0 -5 5
-7 10 -4 6 3 10 2 10 -4 0 -6 11 -13 25 -17 13 -3 23 -11 22 -18 -1 -6 4 -10
12 -8 8 2 11 -3 8 -13 -4 -8 -2 -15 4 -15 5 0 7 -11 3 -25 -3 -14 -7 -33 -8
-43 0 -9 -5 -20 -11 -24 -18 -13 -155 -9 -169 5 -23 22 -14 98 14 128 14 14
30 24 36 22 6 -2 14 3 17 11 8 20 3 20 -31 2 -35 -18 -57 -46 -66 -79 -3 -15
-12 -26 -19 -24 -6 1 -12 -5 -12 -13 0 -8 6 -14 13 -12 8 1 11 -2 7 -8 -3 -5
-2 -10 3 -10 6 0 13 -7 16 -16 4 -12 0 -15 -17 -12 -12 2 -21 9 -19 16 3 17
-15 15 -22 -3 -5 -13 -21 -15 -87 -13 l-81 3 -13 38 c-7 20 -9 37 -4 37 5 0 9
9 9 19 0 11 5 23 10 26 6 4 8 10 5 15 -3 4 7 11 22 15 16 3 31 11 35 17 8 15
102 -32 106 -52 5 -20 20 -35 28 -27 11 10 -24 56 -59 77 -39 24 -80 26 -101
4z m853 -6 c11 -11 12 -10 6 2 -5 8 10 -1 32 -20 23 -19 39 -41 37 -48 -2 -7
1 -10 6 -7 12 8 12 9 -4 -45 l-13 -45 -69 -3 c-99 -4 -108 -1 -112 48 -1 22 3
50 9 63 13 24 49 53 62 49 4 -1 7 3 7 8 0 14 23 12 39 -2z m-1161 -985 l2
-433 -44 0 c-104 0 -253 81 -331 179 -143 179 -120 446 50 584 81 65 202 108
290 104 l30 -2 3 -432z m1942 2 l0 -435 -38 0 c-130 0 -295 117 -364 257 -31
64 -33 74 -33 178 0 105 2 113 34 180 70 143 221 243 384 254 16 1 17 -26 17
-434z"/>
<path d="M2662 1960 c-7 -11 -8 -21 -2 -25 5 -3 14 3 20 14 13 26 -2 35 -18
11z"/>
</g>
</svg>
